<svg width="28" height="24" viewBox="0 0 28 24" fill="none" xmlns="http://www.w3.org/2000/svg">
<path fill-rule="evenodd" clip-rule="evenodd" d="M19.0237 2.17567e-05C17.2373 -2.11186e-06 16.0629 0.206708 14.7198 0.832832C14.3233 1.01768 13.9456 1.23267 13.5881 1.47735C13.2488 1.24917 12.8911 1.0466 12.5162 0.869998C11.1488 0.225886 9.91617 0 8.19245 0C3.4661 0 0 3.76384 0 8.63748C0 12.2898 2.10251 15.7589 5.97109 19.0726C7.97459 20.7887 10.5266 22.483 12.3666 23.3905L13.6026 24L14.8385 23.3905C16.6785 22.483 19.2305 20.7887 21.234 19.0726C25.1026 15.7589 27.2051 12.2898 27.2051 8.63748C27.2051 3.81234 23.7092 0.0185015 19.0237 2.17567e-05ZM23.8045 8.63741C23.8045 11.1266 22.2082 13.7604 19.0218 16.4898C17.3302 17.9388 15.1704 19.3907 13.6026 20.2046C12.0348 19.3907 9.87499 17.9388 8.18338 16.4898C4.99697 13.7604 3.40068 11.1266 3.40068 8.63741C3.40068 5.58217 5.4097 3.40057 8.19248 3.40057C9.45083 3.40057 10.1998 3.53783 11.0671 3.94635C11.5677 4.18216 12.007 4.4913 12.3862 4.87655L13.6083 6.11822L14.8198 4.86619C15.2075 4.46556 15.6522 4.1501 16.1567 3.91496C16.996 3.52368 17.6954 3.40057 19.017 3.40058C21.7613 3.41142 23.8045 5.62868 23.8045 8.63741Z" fill="#C4C4C4"/>
</svg>
