<svg width="24" height="28" viewBox="0 0 24 28" fill="none" xmlns="http://www.w3.org/2000/svg">
<path fill-rule="evenodd" clip-rule="evenodd" d="M14.8661 2.38398L17.7335 5.25134H7C3.54822 5.25134 0.75 8.04956 0.75 11.5013V15.2513H3.25V11.5013C3.25 9.43028 4.92893 7.75134 7 7.75134H17.731L14.8661 10.6162L16.6339 12.384L22.5178 6.50009L16.6339 0.616211L14.8661 2.38398ZM9.13388 25.6162L6.26777 22.7501H17C20.4518 22.7501 23.25 19.9519 23.25 16.5001V12.7501H20.75V16.5001C20.75 18.5712 19.0711 20.2501 17 20.2501H6.26777L9.13388 17.384L7.36612 15.6162L1.48223 21.5001L7.36612 27.384L9.13388 25.6162Z" fill="#C4C4C4"/>
</svg>
