<svg width="31" height="31" viewBox="0 0 31 31" fill="none" xmlns="http://www.w3.org/2000/svg">
<g opacity="0.8">
<path fill-rule="evenodd" clip-rule="evenodd" d="M19.5357 20.2428C17.6736 21.9362 15.1994 22.9684 12.4842 22.9684C6.69392 22.9684 2 18.2744 2 12.4842C2 6.69392 6.69392 2 12.4842 2C18.2744 2 22.9684 6.69392 22.9684 12.4842C22.9684 15.1994 21.9362 17.6736 20.2428 19.5357L19.9049 19.1978L19.1978 19.9049L19.5357 20.2428ZM20.2435 20.9506C18.1998 22.8246 15.4756 23.9684 12.4842 23.9684C6.14164 23.9684 1 18.8267 1 12.4842C1 6.14164 6.14164 1 12.4842 1C18.8267 1 23.9684 6.14164 23.9684 12.4842C23.9684 15.4756 22.8246 18.1998 20.9506 20.2435L28.7389 28.0318L28.0318 28.7389L20.2435 20.9506Z" fill="white" fill-opacity="0.8"/>
<path d="M19.5357 20.2428L20.2085 20.9826L20.9842 20.2771L20.2428 19.5357L19.5357 20.2428ZM20.2428 19.5357L19.5357 20.2428L20.2771 20.9842L20.9826 20.2085L20.2428 19.5357ZM19.9049 19.1978L20.612 18.4907L19.9049 17.7836L19.1978 18.4907L19.9049 19.1978ZM19.1978 19.9049L18.4907 19.1978L17.7836 19.9049L18.4907 20.612L19.1978 19.9049ZM20.2435 20.9506L20.9506 20.2435L20.2735 19.5664L19.5677 20.2136L20.2435 20.9506ZM20.9506 20.2435L20.2136 19.5677L19.5664 20.2735L20.2435 20.9506L20.9506 20.2435ZM28.7389 28.0318L29.446 28.7389L30.1531 28.0318L29.446 27.3247L28.7389 28.0318ZM28.0318 28.7389L27.3247 29.446L28.0318 30.1531L28.7389 29.446L28.0318 28.7389ZM12.4842 23.9684C15.4578 23.9684 18.1695 22.8369 20.2085 20.9826L18.8629 19.503C17.1777 21.0355 14.941 21.9684 12.4842 21.9684V23.9684ZM1 12.4842C1 18.8267 6.14164 23.9684 12.4842 23.9684V21.9684C7.24621 21.9684 3 17.7221 3 12.4842H1ZM12.4842 1C6.14164 1 1 6.14164 1 12.4842H3C3 7.24621 7.24621 3 12.4842 3V1ZM23.9684 12.4842C23.9684 6.14164 18.8267 1 12.4842 1V3C17.7221 3 21.9684 7.24621 21.9684 12.4842H23.9684ZM20.9826 20.2085C22.8369 18.1695 23.9684 15.4578 23.9684 12.4842H21.9684C21.9684 14.941 21.0355 17.1777 19.503 18.8629L20.9826 20.2085ZM19.1978 19.9049L19.5357 20.2428L20.9499 18.8286L20.612 18.4907L19.1978 19.9049ZM19.9049 20.612L20.612 19.9049L19.1978 18.4907L18.4907 19.1978L19.9049 20.612ZM20.2428 19.5357L19.9049 19.1978L18.4907 20.612L18.8286 20.9499L20.2428 19.5357ZM12.4842 24.9684C15.7355 24.9684 18.6985 23.7241 20.9194 21.6877L19.5677 20.2136C17.7012 21.9251 15.2156 22.9684 12.4842 22.9684V24.9684ZM0 12.4842C0 19.379 5.58936 24.9684 12.4842 24.9684V22.9684C6.69392 22.9684 2 18.2744 2 12.4842H0ZM12.4842 0C5.58936 0 0 5.58936 0 12.4842H2C2 6.69392 6.69392 2 12.4842 2V0ZM24.9684 12.4842C24.9684 5.58936 19.379 0 12.4842 0V2C18.2744 2 22.9684 6.69392 22.9684 12.4842H24.9684ZM21.6877 20.9194C23.7241 18.6985 24.9684 15.7355 24.9684 12.4842H22.9684C22.9684 15.2156 21.9251 17.7012 20.2136 19.5677L21.6877 20.9194ZM20.2435 20.9506L28.0318 28.7389L29.446 27.3247L21.6577 19.5364L20.2435 20.9506ZM28.0318 27.3247L27.3247 28.0318L28.7389 29.446L29.446 28.7389L28.0318 27.3247ZM28.7389 28.0318L20.9506 20.2435L19.5364 21.6577L27.3247 29.446L28.7389 28.0318Z" fill="white"/>
</g>
</svg>
