<svg width="24" height="22" viewBox="0 0 24 22" fill="none" xmlns="http://www.w3.org/2000/svg">
<path fill-rule="evenodd" clip-rule="evenodd" d="M18.9823 6.00006L18.2616 6.00004C15.7364 6.02355 14.7118 7.10301 13.0612 10.7049C12.8757 11.1107 12.7771 11.3262 12.6847 11.5257C10.4699 16.3112 8.20463 18.4237 3.25 18.5001H0.75V16.0001L3.2307 16.0002C6.99724 15.9421 8.56083 14.4839 10.416 10.4757C10.5057 10.2818 10.6017 10.0721 10.7885 9.66335C12.8047 5.26376 14.4451 3.53546 18.25 3.50009H18.9822L17.3661 1.88398L19.1339 0.116211L23.7678 4.75009L19.1339 9.38398L17.3661 7.61621L18.9823 6.00006ZM18.9822 18.5001H18.25C15.8338 18.4776 14.2904 17.7725 12.9694 16.134C13.4598 15.4289 13.9202 14.6463 14.3637 13.7856C15.4141 15.4248 16.453 15.9833 18.2616 16.0001L18.9823 16.0001L17.3661 14.384L19.1339 12.6162L23.7678 17.2501L19.1339 21.884L17.3661 20.1162L18.9822 18.5001ZM3.2307 5.99994C5.77767 6.03926 7.31732 6.71876 8.62095 8.39403C9.03068 7.51308 9.43799 6.7156 9.85802 5.99907C8.24751 4.33258 6.23772 3.54613 3.25 3.50009H0.75V6.00009L3.2307 5.99994Z" fill="#C4C4C4"/>
</svg>
